<?xml version="1.0" encoding="UTF-8" standalone="yes"?>
<svg version="1.2" width="100%" viewBox="0 0 1080 1080" xml:space="preserve" baseProfile="tiny-ps" xmlns="http://www.w3.org/2000/svg">
  <title>bimi-svg-tiny-12-ps</title>
  <path fill="#FFFFFF" stroke="none" d="&#xA;M624.000000,1081.000000 &#xA;&#x9;C416.023956,1081.000000 208.547882,1081.000000 1.035917,1081.000000 &#xA;&#x9;C1.035917,721.065491 1.035917,361.130981 1.035917,1.098230 &#xA;&#x9;C360.892975,1.098230 720.785950,1.098230 1080.839478,1.098230 &#xA;&#x9;C1080.839478,360.999939 1080.839478,720.999939 1080.839478,1081.000000 &#xA;&#x9;C928.797180,1081.000000 776.648621,1081.000000 624.000000,1081.000000 &#xA;M819.966492,771.289490 &#xA;&#x9;C821.968628,766.571472 823.957764,761.847961 825.975159,757.136536 &#xA;&#x9;C834.110901,738.136414 842.195435,719.114075 850.418701,700.151917 &#xA;&#x9;C855.459290,688.528625 860.803467,677.037170 865.858826,665.420105 &#xA;&#x9;C874.235291,646.171082 882.464111,626.857910 890.801697,607.591858 &#xA;&#x9;C897.486938,592.144043 904.295471,576.749512 910.950500,561.288879 &#xA;&#x9;C919.121460,542.306396 927.110291,523.245300 935.326416,504.282623 &#xA;&#x9;C942.402344,487.951569 949.744507,471.735992 956.838989,455.412933 &#xA;&#x9;C958.647339,451.252258 959.962402,446.877197 961.664001,442.156982 &#xA;&#x9;C934.208069,442.156982 907.743042,442.156982 881.192749,442.156982 &#xA;&#x9;C848.798828,517.456360 816.422058,592.715698 783.862915,668.399109 &#xA;&#x9;C752.135986,592.364441 720.759644,517.169861 689.462036,442.164062 &#xA;&#x9;C670.501770,442.164062 651.870239,442.164062 633.187683,442.164062 &#xA;&#x9;C601.597046,517.239502 570.057068,592.194458 538.099426,668.142090 &#xA;&#x9;C535.822021,663.283569 533.905579,659.478882 532.229126,655.571289 &#xA;&#x9;C523.069275,634.221008 514.037598,612.815369 504.824280,591.488220 &#xA;&#x9;C498.020020,575.737671 490.930878,560.110291 484.103546,544.369568 &#xA;&#x9;C475.815186,525.260437 467.710510,506.071686 459.446228,486.951996 &#xA;&#x9;C453.720642,473.705719 447.473999,460.666840 442.281799,447.218079 &#xA;&#x9;C440.609558,442.886658 438.774139,441.907745 434.633911,441.925598 &#xA;&#x9;C403.136963,442.061462 371.638855,442.063538 340.142029,441.910126 &#xA;&#x9;C336.661743,441.893188 334.368256,443.005920 331.989777,445.391724 &#xA;&#x9;C288.808807,488.705444 245.545013,531.936646 202.326477,575.213013 &#xA;&#x9;C201.106461,576.434631 200.191330,577.960754 199.134033,579.344910 &#xA;&#x9;C198.730469,579.056091 198.326889,578.767273 197.923309,578.478394 &#xA;&#x9;C197.923309,472.763611 197.923309,367.048828 197.923309,261.231445 &#xA;&#x9;C171.804001,261.231445 146.066910,261.231445 120.220596,261.231445 &#xA;&#x9;C120.220596,446.857910 120.220596,632.252808 120.220596,817.777100 &#xA;&#x9;C146.178665,817.777100 171.915726,817.777100 198.000000,817.777100 &#xA;&#x9;C198.000000,815.931091 198.000000,814.302979 198.000000,812.674866 &#xA;&#x9;C198.000000,772.511292 198.048645,732.347595 197.913803,692.184509 &#xA;&#x9;C197.902176,688.721802 198.913803,686.368958 201.360413,684.016968 &#xA;&#x9;C215.129578,670.780273 228.772522,657.412048 242.426514,644.055969 &#xA;&#x9;C246.460876,640.109558 250.391327,636.056946 254.522507,631.898926 &#xA;&#x9;C280.883453,694.185303 307.085907,756.097229 333.159760,817.705261 &#xA;&#x9;C360.037598,817.705261 386.432587,817.705261 413.276459,817.705261 &#xA;&#x9;C378.354553,734.798828 343.606018,652.303894 308.755646,569.567322 &#xA;&#x9;C332.867462,542.852234 356.917694,516.205383 381.253693,489.241913 &#xA;&#x9;C428.821899,599.366577 476.034454,708.667847 523.216309,817.898071 &#xA;&#x9;C533.863586,817.898071 544.179810,817.898071 554.447571,817.898071 &#xA;&#x9;C589.722839,733.735168 624.954468,649.676392 660.690063,564.415161 &#xA;&#x9;C697.112122,649.959473 732.857300,733.913879 768.608643,817.882812 &#xA;&#x9;C778.966187,817.882812 789.279724,817.882812 799.350708,817.882812 &#xA;&#x9;C806.138916,802.451599 812.844910,787.207214 819.966492,771.289490 &#xA;M874.952698,809.505249 &#xA;&#x9;C880.574890,818.410583 888.874084,821.404297 899.075256,821.069458 &#xA;&#x9;C911.899719,820.648560 924.810181,806.209778 922.969238,793.619690 &#xA;&#x9;C920.367126,775.824036 906.504456,765.953918 889.415405,770.021118 &#xA;&#x9;C872.581604,774.027527 865.088196,794.990234 874.952698,809.505249 &#xA;z"/>
  <path fill="#000000" stroke="none" d="&#xA;M819.758667,771.626160 &#xA;&#x9;C812.844910,787.207214 806.138916,802.451599 799.350708,817.882812 &#xA;&#x9;C789.279724,817.882812 778.966187,817.882812 768.608643,817.882812 &#xA;&#x9;C732.857300,733.913879 697.112122,649.959473 660.690063,564.415161 &#xA;&#x9;C624.954468,649.676392 589.722839,733.735168 554.447571,817.898071 &#xA;&#x9;C544.179810,817.898071 533.863586,817.898071 523.216309,817.898071 &#xA;&#x9;C476.034454,708.667847 428.821899,599.366577 381.253693,489.241913 &#xA;&#x9;C356.917694,516.205383 332.867462,542.852234 308.755646,569.567322 &#xA;&#x9;C343.606018,652.303894 378.354553,734.798828 413.276459,817.705261 &#xA;&#x9;C386.432587,817.705261 360.037598,817.705261 333.159760,817.705261 &#xA;&#x9;C307.085907,756.097229 280.883453,694.185303 254.522507,631.898926 &#xA;&#x9;C250.391327,636.056946 246.460876,640.109558 242.426514,644.055969 &#xA;&#x9;C228.772522,657.412048 215.129578,670.780273 201.360413,684.016968 &#xA;&#x9;C198.913803,686.368958 197.902176,688.721802 197.913803,692.184509 &#xA;&#x9;C198.048645,732.347595 198.000000,772.511292 198.000000,812.674866 &#xA;&#x9;C198.000000,814.302979 198.000000,815.931091 198.000000,817.777100 &#xA;&#x9;C171.915726,817.777100 146.178665,817.777100 120.220596,817.777100 &#xA;&#x9;C120.220596,632.252808 120.220596,446.857910 120.220596,261.231445 &#xA;&#x9;C146.066910,261.231445 171.804001,261.231445 197.923309,261.231445 &#xA;&#x9;C197.923309,367.048828 197.923309,472.763611 197.923309,578.478394 &#xA;&#x9;C198.326889,578.767273 198.730469,579.056091 199.134033,579.344910 &#xA;&#x9;C200.191330,577.960754 201.106461,576.434631 202.326477,575.213013 &#xA;&#x9;C245.545013,531.936646 288.808807,488.705444 331.989777,445.391724 &#xA;&#x9;C334.368256,443.005920 336.661743,441.893188 340.142029,441.910126 &#xA;&#x9;C371.638855,442.063538 403.136963,442.061462 434.633911,441.925598 &#xA;&#x9;C438.774139,441.907745 440.609558,442.886658 442.281799,447.218079 &#xA;&#x9;C447.473999,460.666840 453.720642,473.705719 459.446228,486.951996 &#xA;&#x9;C467.710510,506.071686 475.815186,525.260437 484.103546,544.369568 &#xA;&#x9;C490.930878,560.110291 498.020020,575.737671 504.824280,591.488220 &#xA;&#x9;C514.037598,612.815369 523.069275,634.221008 532.229126,655.571289 &#xA;&#x9;C533.905579,659.478882 535.822021,663.283569 538.099426,668.142090 &#xA;&#x9;C570.057068,592.194458 601.597046,517.239502 633.187683,442.164062 &#xA;&#x9;C651.870239,442.164062 670.501770,442.164062 689.462036,442.164062 &#xA;&#x9;C720.759644,517.169861 752.135986,592.364441 783.862915,668.399109 &#xA;&#x9;C816.422058,592.715698 848.798828,517.456360 881.192749,442.156982 &#xA;&#x9;C907.743042,442.156982 934.208069,442.156982 961.664001,442.156982 &#xA;&#x9;C959.962402,446.877197 958.647339,451.252258 956.838989,455.412933 &#xA;&#x9;C949.744507,471.735992 942.402344,487.951569 935.326416,504.282623 &#xA;&#x9;C927.110291,523.245300 919.121460,542.306396 910.950500,561.288879 &#xA;&#x9;C904.295471,576.749512 897.486938,592.144043 890.801697,607.591858 &#xA;&#x9;C882.464111,626.857910 874.235291,646.171082 865.858826,665.420105 &#xA;&#x9;C860.803467,677.037170 855.459290,688.528625 850.418701,700.151917 &#xA;&#x9;C842.195435,719.114075 834.110901,738.136414 825.975159,757.136536 &#xA;&#x9;C823.957764,761.847961 821.968628,766.571472 819.758667,771.626160 &#xA;z"/>
  <path fill="#000000" stroke="none" d="&#xA;M874.690796,809.230591 &#xA;&#x9;C865.088196,794.990234 872.581604,774.027527 889.415405,770.021118 &#xA;&#x9;C906.504456,765.953918 920.367126,775.824036 922.969238,793.619690 &#xA;&#x9;C924.810181,806.209778 911.899719,820.648560 899.075256,821.069458 &#xA;&#x9;C888.874084,821.404297 880.574890,818.410583 874.690796,809.230591 &#xA;M915.600403,804.919006 &#xA;&#x9;C922.176331,793.046326 915.315125,780.092407 904.836060,775.271667 &#xA;&#x9;C894.538940,770.534668 882.802795,775.851624 877.503479,784.960876 &#xA;&#x9;C871.641663,795.036987 876.284485,808.442566 886.225952,814.186462 &#xA;&#x9;C896.106018,819.895020 911.263733,815.368164 915.600403,804.919006 &#xA;z"/>
  <path fill="#FFFFFF" stroke="none" d="&#xA;M915.326782,805.200073 &#xA;&#x9;C911.263733,815.368164 896.106018,819.895020 886.225952,814.186462 &#xA;&#x9;C876.284485,808.442566 871.641663,795.036987 877.503479,784.960876 &#xA;&#x9;C882.802795,775.851624 894.538940,770.534668 904.836060,775.271667 &#xA;&#x9;C915.315125,780.092407 922.176331,793.046326 915.326782,805.200073 &#xA;M903.970337,800.757019 &#xA;&#x9;C903.280212,799.491699 902.590149,798.226379 901.758911,796.702271 &#xA;&#x9;C906.369568,793.469666 906.061401,788.882996 903.851562,784.929993 &#xA;&#x9;C900.204956,778.406433 893.697144,781.798279 888.230164,780.928345 &#xA;&#x9;C888.230164,790.913696 888.230164,800.323242 888.230164,809.779785 &#xA;&#x9;C889.865784,809.779785 891.268494,809.779785 893.013672,809.779785 &#xA;&#x9;C893.013672,805.464844 893.013672,801.353333 893.013672,796.348694 &#xA;&#x9;C900.036255,798.849915 898.230957,805.939392 902.024841,809.820435 &#xA;&#x9;C903.256409,809.820435 905.046570,809.820435 907.206116,809.820435 &#xA;&#x9;C906.065796,806.878479 905.033264,804.214417 903.970337,800.757019 &#xA;z"/>
  <path fill="#000000" stroke="none" d="&#xA;M903.985535,801.153687 &#xA;&#x9;C905.033264,804.214417 906.065796,806.878479 907.206116,809.820435 &#xA;&#x9;C905.046570,809.820435 903.256409,809.820435 902.024841,809.820435 &#xA;&#x9;C898.230957,805.939392 900.036255,798.849915 893.013672,796.348694 &#xA;&#x9;C893.013672,801.353333 893.013672,805.464844 893.013672,809.779785 &#xA;&#x9;C891.268494,809.779785 889.865784,809.779785 888.230164,809.779785 &#xA;&#x9;C888.230164,800.323242 888.230164,790.913696 888.230164,780.928345 &#xA;&#x9;C893.697144,781.798279 900.204956,778.406433 903.851562,784.929993 &#xA;&#x9;C906.061401,788.882996 906.369568,793.469666 901.758911,796.702271 &#xA;&#x9;C902.590149,798.226379 903.280212,799.491699 903.985535,801.153687 &#xA;M893.000000,789.491455 &#xA;&#x9;C893.079895,790.614380 893.159790,791.737366 893.231384,792.744202 &#xA;&#x9;C899.281799,794.145691 899.481384,790.723877 898.787720,786.347351 &#xA;&#x9;C897.983154,786.119446 897.088135,785.852783 896.185669,785.613953 &#xA;&#x9;C895.281738,785.374695 894.370361,785.163208 893.214905,784.878662 &#xA;&#x9;C893.131958,786.312012 893.065979,787.451233 893.000000,789.491455 &#xA;z"/>
  <path fill="#FFFFFF" stroke="none" d="&#xA;M893.000000,789.040955 &#xA;&#x9;C893.065979,787.451233 893.131958,786.312012 893.214905,784.878662 &#xA;&#x9;C894.370361,785.163208 895.281738,785.374695 896.185669,785.613953 &#xA;&#x9;C897.088135,785.852783 897.983154,786.119446 898.787720,786.347351 &#xA;&#x9;C899.481384,790.723877 899.281799,794.145691 893.231384,792.744202 &#xA;&#x9;C893.159790,791.737366 893.079895,790.614380 893.000000,789.040955 &#xA;z"/>
</svg>